<svg id="Layer_2_00000022527747182678122540000005126107981207317658_" enable-background="new 0 0 512 512" height="512" viewBox="0 0 512 512" width="512" xmlns="http://www.w3.org/2000/svg"><g id="Currency"><path id="BrazilReal" d="m140.6 296.4h-35.1v95.2h-64.9v-269.1h105.9c31.9 0 56.8 7.1 74.8 21.2s27 34.1 27 60c0 18.7-3.8 34.2-11.4 46.5s-19.4 22.3-35.6 29.9l56.2 108.6v2.8h-69.5zm-35.1-49.9h41c12.3 0 21.6-3.2 27.8-9.7s9.3-15.5 9.3-27.1-3.1-20.7-9.4-27.3-15.5-9.9-27.7-9.9h-41zm302.1 73.7c0-9.7-2.4-17.4-7.2-22.9s-13.2-10.8-25.3-15.7-23.2-9.9-33.5-15c-10.2-5-19-10.9-26.4-17.6-7.4-6.6-13.1-14.4-17-23.1s-5.9-19.3-5.9-31.8c0-20.8 7-38 21.1-51.5 14-13.5 32.8-21.3 56.2-23.6v-39h29.4v39.7c22.5 3.3 40.2 12.6 53.1 27.8s19.3 34.5 19.3 57.9h-62.5c0-12.8-2.5-22.7-7.4-29.6s-12-10.4-21.1-10.4c-8.1 0-14.5 2.6-18.9 7.7-4.5 5.1-6.8 12.2-6.8 21.2s2.6 16.4 7.8 21.7c5.2 5.4 13.5 10.5 25 15.3 11.5 4.9 22.3 9.9 32.4 15.1 10.2 5.2 18.9 11.2 26.3 17.8s13.2 14.4 17.4 23.3 6.3 19.5 6.3 32c0 21.1-6.7 38.2-20 51.6-13.4 13.3-31.6 21.1-54.6 23.3v37.1h-29.4v-37.3c-26.9-2.8-47.5-12-61.8-27.6-14.4-15.6-21.5-36.1-21.5-61.6h62.3c0 14 3.1 24.7 9.3 32.1 6.2 7.3 15.1 11 26.5 11 8.4 0 15-2.5 19.8-7.5 4.7-4.8 7.1-11.7 7.1-20.4z"/></g></svg>