<svg id="Capa_1" enable-background="new 0 0 512 512" viewBox="0 0 512 512" xmlns="http://www.w3.org/2000/svg"><g><path d="m164.77 171.48c21.7 0 39.35-17.65 39.35-39.35s-17.65-39.35-39.35-39.35-39.36 17.65-39.36 39.35 17.66 39.35 39.36 39.35zm0-62.71c12.88 0 23.35 10.48 23.35 23.35s-10.48 23.35-23.35 23.35-23.36-10.48-23.36-23.35 10.49-23.35 23.36-23.35z"/><path d="m448 288.36v-186.36c0-31.98-26.02-58-58-58h-332c-31.98 0-58 26.02-58 58v224c0 31.98 26.02 58 58 58h270.35c4.07 47 43.62 84 91.65 84 50.73 0 92-41.27 92-92 0-40.97-26.92-75.76-64-87.64zm-390-228.36h332c23.16 0 42 18.84 42 42v182.78c-3.13-.41-6.31-.66-9.53-.75l-101.28-115.53c-6.08-6.93-14.85-10.91-24.06-10.91-.01 0-.01 0-.02 0-9.22.01-18 3.99-24.07 10.94l-106.29 121.56-49.28-56.21c-6.08-6.93-14.85-10.91-24.06-10.91-.01 0-.01 0-.02 0-9.22.01-18 3.99-24.07 10.94l-53.32 60.98v-192.89c0-23.16 18.84-42 42-42zm227.08 119.06c3.04-3.47 7.42-5.47 12.04-5.47h.01c4.61 0 8.99 1.99 12.03 5.45l93.46 106.61c-39.89 7.66-70.7 41.16-74.27 82.35h-208.47zm-269.03 148.85.21.03c.85-6.89 3.83-13.42 8.61-18.88l56.49-64.61c3.04-3.47 7.42-5.47 12.04-5.47h.01c4.61 0 8.99 1.99 12.03 5.45l50.68 57.82-57.49 65.75h-40.63c-22.52 0-40.95-17.82-41.95-40.09zm403.95 124.09c-41.91 0-76-34.09-76-76s34.09-76 76-76 76 34.09 76 76-34.09 76-76 76z"/><path d="m426.89 339.95c-1.39-2.36-3.95-3.95-6.89-3.95s-5.5 1.59-6.89 3.95l-21.39 21.4c-3.12 3.12-3.12 8.19 0 11.31s8.19 3.12 11.31 0l8.97-8.97v44.31c0 4.42 3.58 8 8 8s8-3.58 8-8v-44.31l8.97 8.97c1.56 1.56 3.61 2.34 5.66 2.34s4.09-.78 5.66-2.34c3.12-3.12 3.12-8.19 0-11.31z"/></g></svg>