<?xml version="1.0" standalone="no"?>
<!DOCTYPE svg PUBLIC "-//W3C//DTD SVG 20010904//EN"
 "http://www.w3.org/TR/2001/REC-SVG-20010904/DTD/svg10.dtd">
<svg version="1.0" xmlns="http://www.w3.org/2000/svg"
 width="15.000000pt" height="10.000000pt" viewBox="0 0 500.000000 500.000000"
 preserveAspectRatio="xMidYMid meet">

<g transform="translate(0.000000,500.000000) scale(0.100000,-0.100000)"
fill="#000000" stroke="none">
<path d="M790 2500 l0 -2000 395 0 395 0 0 1002 c0 551 3 998 7 994 4 -3 233
-453 509 -999 l502 -992 376 -3 376 -2 0 2000 0 2000 -400 0 -400 0 -2 -999
-3 -999 -504 999 -505 999 -373 0 -373 0 0 -2000z"/>
<path d="M4050 4491 c-133 -28 -217 -124 -256 -289 -23 -95 -14 -294 15 -377
56 -157 167 -235 331 -235 239 0 372 184 357 490 -11 214 -81 340 -217 394
-50 20 -175 29 -230 17z m158 -201 c53 -32 75 -95 80 -221 5 -132 -13 -206
-63 -256 -28 -28 -40 -33 -79 -33 -109 0 -149 62 -154 241 -3 87 0 131 12 172
30 104 121 147 204 97z"/>
</g>
</svg>
